<?xml version="1.0" encoding="UTF-8"?><svg id="Layer_1" xmlns="http://www.w3.org/2000/svg" xmlns:xlink="http://www.w3.org/1999/xlink" viewBox="130 840 1590 240"><defs><style>.cls-1{fill:url(#Tour_Scale_Gradient);}.cls-1,.cls-2,.cls-3,.cls-4{stroke-width:0px;}.cls-5{clip-path:url(#clippath);}.cls-2{fill:none;}.cls-3{fill:#231f20;}.cls-4{fill:#4399d4;}</style><clipPath id="clippath"><path class="cls-2" d="M254.15,859.85c-47.88,0-86.7,38.82-86.7,86.7,0,25.7,11.19,48.79,28.96,64.67l47.61,49.06c5.54,5.71,14.7,5.71,20.24,0l47.62-49.06c17.77-15.88,28.96-38.96,28.96-64.67,0-47.88-38.82-86.7-86.7-86.7ZM254.15,988.98c-23.44,0-42.44-19-42.44-42.44s19-42.44,42.44-42.44,42.44,19,42.44,42.44-19,42.44-42.44,42.44Z"/></clipPath><linearGradient id="Tour_Scale_Gradient" x1="2408.87" y1="-1188.54" x2="2613.58" y2="-1188.54" gradientTransform="translate(-2257.07 2150.75)" gradientUnits="userSpaceOnUse"><stop offset="0" stop-color="#4399d4"/><stop offset=".33" stop-color="#1fbcdb"/><stop offset=".66" stop-color="#40c1cc"/><stop offset="1" stop-color="#59c3b8"/></linearGradient></defs><path class="cls-3" d="M419,903.35h-48.13v-28.43h126.19v28.43h-48.13v146.14h-29.93v-146.14Z"/><path class="cls-3" d="M450.8,1051.36h-33.67v-146.14h-48.13v-32.17h129.93v32.17h-48.13v146.14ZM420.87,1047.62h26.19v-146.14h48.13v-24.69h-122.45v24.69h48.13v146.14Z"/><path class="cls-3" d="M680.62,962.2c0,51.62-37.41,90.28-88.29,90.28s-88.28-38.66-88.28-90.28,37.41-90.28,88.28-90.28,88.29,38.66,88.29,90.28ZM650.19,962.2c0-33.67-22.69-61.85-57.86-61.85s-57.86,28.18-57.86,61.85,22.69,61.85,57.86,61.85,57.86-28.18,57.86-61.85Z"/><path class="cls-3" d="M592.33,1054.35c-25.07,0-48-9.36-64.56-26.34-16.51-16.93-25.6-40.3-25.6-65.81s9.09-48.87,25.6-65.8c16.56-16.99,39.49-26.34,64.56-26.34s48,9.36,64.56,26.34c16.51,16.93,25.6,40.3,25.6,65.8s-9.09,48.87-25.6,65.81c-16.56,16.99-39.49,26.34-64.56,26.34ZM592.33,873.79c-24.05,0-46.03,8.96-61.88,25.22-15.82,16.23-24.53,38.67-24.53,63.19s8.71,46.97,24.53,63.19c15.85,16.26,37.83,25.22,61.88,25.22s46.03-8.96,61.88-25.22c15.82-16.23,24.53-38.67,24.53-63.19s-8.71-46.96-24.53-63.19c-15.85-16.26-37.83-25.22-61.88-25.22ZM592.33,1025.92c-17.14,0-32.59-6.72-43.51-18.92-10.46-11.69-16.22-27.6-16.22-44.8s5.76-33.11,16.22-44.8c10.92-12.2,26.37-18.92,43.51-18.92s32.59,6.72,43.51,18.92c10.46,11.69,16.22,27.6,16.22,44.8s-5.76,33.11-16.22,44.8c-10.92,12.2-26.37,18.92-43.51,18.92ZM592.33,902.22c-32.44,0-55.99,25.22-55.99,59.98s23.55,59.98,55.99,59.98,55.99-25.23,55.99-59.98-23.55-59.98-55.99-59.98Z"/><path class="cls-3" d="M812.3,874.92h29.93v111.23c0,38.41-26.19,66.34-67.34,66.34s-67.34-27.93-67.34-66.34v-111.23h29.93v107.49c0,24.94,12.47,41.65,37.41,41.65s37.41-16.71,37.41-41.65v-107.49Z"/><path class="cls-3" d="M774.89,1054.35c-20.45,0-37.89-6.68-50.43-19.32-12.11-12.21-18.78-29.57-18.78-48.89v-113.1h33.67v109.36c0,25.28,12.95,39.78,35.54,39.78s35.54-14.5,35.54-39.78v-109.36h33.67v113.1c0,19.32-6.67,36.68-18.78,48.89-12.54,12.64-29.98,19.32-50.43,19.32ZM709.42,876.79v109.36c0,38.56,26.31,64.47,65.46,64.47s65.47-25.91,65.47-64.47v-109.36h-26.19v105.62c0,27.25-14.68,43.52-39.28,43.52s-39.28-16.27-39.28-43.52v-105.62h-26.19Z"/><path class="cls-3" d="M879.13,874.92h57.36c34.67,0,57.86,22.45,57.86,54.37,0,26.19-13.97,46.14-38.9,52.37l43.64,67.84h-34.92l-41.4-65.84h-13.72v65.84h-29.93v-174.57ZM963.93,929.28c0-17.21-11.97-25.94-31.17-25.94h-23.69v51.87h23.69c19.2,0,31.17-8.73,31.17-25.94Z"/><path class="cls-3" d="M1002.52,1051.36h-39.38l-41.4-65.84h-10.81v65.84h-33.67v-178.32h59.23c35.17,0,59.73,23.13,59.73,56.24,0,26.69-14.08,46.51-37.82,53.51l44.12,68.57ZM965.21,1047.62h30.45l-43.2-67.15,2.53-.63c23.47-5.87,37.49-24.77,37.49-50.56,0-15.21-5.31-28.28-15.35-37.8-10.15-9.62-24.2-14.7-40.64-14.7h-55.49v170.83h26.19v-65.84h16.62l41.4,65.84ZM932.75,957.09h-25.56v-55.61h25.56c21,0,33.04,10.13,33.04,27.81s-12.04,27.81-33.04,27.81ZM910.93,953.35h21.82c18.9,0,29.3-8.55,29.3-24.07s-10.41-24.07-29.3-24.07h-21.82v48.13Z"/><path class="cls-4" d="M1076.53,966.44c-25.69-11.22-46.89-24.69-46.89-51.12,0-19.7,15.96-43.39,48.63-43.39s47.38,25.19,47.38,25.19l-9.98,7.73s-12.47-20.2-37.16-20.2c-21.95,0-35.91,13.22-35.91,30.68,0,21.45,19.7,30.92,44.64,41.9,26.68,11.72,41.65,25.19,41.65,48.63,0,28.18-22.94,46.64-52.12,46.64-38.41,0-54.12-35.66-54.12-35.66l11.72-6.98s11.47,29.93,42.4,29.93c21.7,0,39.15-12.97,39.15-33.92s-18.95-30.43-39.4-39.4Z"/><path class="cls-4" d="M1284.52,1014.58l8.98,8.98c-15.21,17.71-38.16,28.93-64.59,28.93-50.38,0-86.29-39.9-86.29-90.28s35.91-90.28,86.29-90.28c25.44,0,46.89,10.23,62.1,26.69l-9.23,8.48c-12.72-13.97-31.17-22.45-52.87-22.45-43.39,0-72.82,34.67-72.82,77.56s29.43,77.56,72.82,77.56c23.19,0,43.14-10.23,55.61-25.19Z"/><path class="cls-4" d="M1372.06,874.92h14.46l69.58,174.57h-13.97l-19.95-50.88h-85.79l-19.95,50.88h-13.97l69.58-174.57ZM1341.38,986.64h75.81l-37.91-97.26-37.91,97.26Z"/><path class="cls-4" d="M1481.04,874.92h12.97v162.6h83.3v11.97h-96.27v-174.57Z"/><path class="cls-4" d="M1615.71,953.97h77.81v11.97h-77.81v71.58h85.29v11.97h-98.26v-174.57h96.76v11.97h-83.8v67.09Z"/><g class="cls-5"><rect class="cls-1" x="151.79" y="854.57" width="204.71" height="215.28" transform="translate(1216.35 708.06) rotate(90)"/></g></svg>